{
	"asset":{
		"version":"2.0",
		"generator":"Created using the official Cinema 4D glTF Exporter 1.000x284978"
	},
	"scenes":[{
		"nodes":[0,
		1]
	}],
	"accessors":[{
		"type":"SCALAR",
		"bufferView":0,
		"componentType":5123,
		"count":21312,
		"byteOffset":0,
		"min":[0],
		"max":[3862]
	},
	{
		"type":"VEC3",
		"bufferView":1,
		"componentType":5126,
		"count":3863,
		"byteOffset":0,
		"min":[-45.743751525878909,
		-3.9760327339172365,
		-45.743751525878909],
		"max":[45.743751525878909,
		162.3539276123047,
		45.743751525878909]
	},
	{
		"type":"VEC3",
		"bufferView":1,
		"componentType":5126,
		"count":3863,
		"byteOffset":12,
		"min":[-0.9999385476112366,
		-1.0,
		-0.9999385476112366],
		"max":[0.9999385476112366,
		1.0,
		0.9999385476112366]
	},
	{
		"type":"VEC2",
		"bufferView":1,
		"componentType":5126,
		"count":3863,
		"byteOffset":24,
		"min":[-976.41796875,
		0.0],
		"max":[0.933890163898468,
		1.0]
	},
	{
		"type":"SCALAR",
		"bufferView":2,
		"componentType":5123,
		"count":27648,
		"byteOffset":0,
		"min":[0],
		"max":[5178]
	},
	{
		"type":"VEC3",
		"bufferView":3,
		"componentType":5126,
		"count":5179,
		"byteOffset":0,
		"min":[-29.640230178833009,
		-28.74032974243164,
		-29.640230178833009],
		"max":[29.640230178833009,
		218.61285400390626,
		29.640230178833009]
	},
	{
		"type":"VEC3",
		"bufferView":3,
		"componentType":5126,
		"count":5179,
		"byteOffset":12,
		"min":[-0.9997119307518005,
		-1.0,
		-0.9997119307518005],
		"max":[0.9997119307518005,
		1.0,
		0.9997119307518005]
	},
	{
		"type":"VEC2",
		"bufferView":3,
		"componentType":5126,
		"count":5179,
		"byteOffset":24,
		"min":[0.0,
		0.0],
		"max":[1.0,
		1.0]
	}],
	"nodes":[{
		"mesh":0,
		"name":"Can ",
		"translation":[78.13501739501953,
		4.0381340980529789,
		-188.39891052246095],
		"rotation":[0.0,
		0.0,
		0.0,
		-1.0],
		"scale":[1.0,
		1.0,
		1.0]
	},
	{
		"mesh":1,
		"name":"Lathe.2",
		"translation":[78.13501739501953,
		29.374467849731447,
		-63.52168655395508],
		"rotation":[0.0,
		0.0,
		0.0,
		-1.0],
		"scale":[1.0,
		1.0,
		1.0]
	}],
	"meshes":[{
		"name":"Can ",
		"primitives":[{
			"attributes":{
				"POSITION":1,
				"NORMAL":2,
				"TEXCOORD_0":3
			},
			"indices":0
		}]
	},
	{
		"name":"Lathe.2",
		"primitives":[{
			"attributes":{
				"POSITION":5,
				"NORMAL":6,
				"TEXCOORD_0":7
			},
			"indices":4
		}]
	}],
	"bufferViews":[{
		"buffer":0,
		"byteOffset":0,
		"byteLength":42624,
		"target":34963
	},
	{
		"buffer":0,
		"byteOffset":42624,
		"byteLength":123616,
		"target":34962,
		"byteStride":32
	},
	{
		"buffer":1,
		"byteOffset":0,
		"byteLength":55296,
		"target":34963
	},
	{
		"buffer":1,
		"byteOffset":55296,
		"byteLength":165728,
		"target":34962,
		"byteStride":32
	}],
	"buffers":[{
		"uri":"data:application/octet-stream;base64,",
		"byteLength":166240
	},
	{
		"uri":"data:application/octet-stream;base64,",
		"byteLength":221024
	}]
}