{
	"asset":{
		"generator":"Khronos glTF Blender I/O v3.6.27",
		"version":"2.0"
	},
	"extensionsUsed":[
		"KHR_lights_punctual"
	],
	"extensionsRequired":[
		"KHR_lights_punctual"
	],
	"extensions":{
		"KHR_lights_punctual":{
			"lights":[
				{
					"color":[
						1,
						1,
						1
					],
					"intensity":54351.41306588226,
					"type":"point",
					"name":"Light"
				},
				{
					"color":[
						1,
						1,
						1
					],
					"intensity":543.5141306588226,
					"spot":{
						"innerConeAngle":0.11521151432071353,
						"outerConeAngle":0.13554295897483826
					},
					"type":"spot",
					"name":"Spot"
				}
			]
		}
	},
	"scene":0,
	"scenes":[
		{
			"name":"Scene",
			"nodes":[
				0,
				1,
				2,
				3
			]
		}
	],
	"nodes":[
		{
			"mesh":0,
			"name":"Cube",
			"translation":[
				0,
				0,
				1
			]
		},
		{
			"extensions":{
				"KHR_lights_punctual":{
					"light":0
				}
			},
			"name":"Light",
			"rotation":[
				0.16907574236392975,
				0.27217137813568115,
				0.7558803558349609,
				0.570947527885437
			],
			"translation":[
				4.076245307922363,
				1.0054539442062378,
				5.903861999511719
			]
		},
		{
			"camera":0,
			"name":"Camera",
			"rotation":[
				0.483536034822464,
				0.20870360732078552,
				0.33687159419059753,
				0.7804827094078064
			],
			"translation":[
				7.358891487121582,
				-6.925790786743164,
				4.958309173583984
			]
		},
		{
			"extensions":{
				"KHR_lights_punctual":{
					"light":1
				}
			},
			"name":"Spot",
			"rotation":[
				-0.21935589611530304,
				0.20409972965717316,
				0,
				0.9540579319000244
			],
			"translation":[
				3.7423465251922607,
				3.6687703132629395,
				8.58735466003418
			]
		}
	],
	"cameras":[
		{
			"name":"Camera",
			"perspective":{
				"aspectRatio":1.7777777777777777,
				"yfov":0.39959652046304894,
				"zfar":100,
				"znear":0.10000000149011612
			},
			"type":"perspective"
		}
	],
	"animations":[
		{
			"channels":[
				{
					"sampler":0,
					"target":{
						"node":0,
						"path":"rotation"
					}
				}
			],
			"name":"CubeAction.001",
			"samplers":[
				{
					"input":6,
					"interpolation":"LINEAR",
					"output":7
				}
			]
		}
	],
	"materials":[
		{
			"doubleSided":true,
			"name":"Material",
			"pbrMetallicRoughness":{
				"baseColorFactor":[
					0.0633995458483696,
					0.32064148783683777,
					0.8000000715255737,
					1
				],
				"metallicFactor":0.899082601070404,
				"roughnessFactor":0.0917431116104126
			}
		}
	],
	"meshes":[
		{
			"name":"Cube",
			"primitives":[
				{
					"attributes":{
						"POSITION":0,
						"NORMAL":1,
						"TEXCOORD_0":2
					},
					"indices":3,
					"material":0
				},
				{
					"attributes":{
						"POSITION":4
					},
					"indices":5,
					"material":0,
					"mode":1
				}
			]
		}
	],
	"accessors":[
		{
			"bufferView":0,
			"componentType":5126,
			"count":75,
			"max":[
				1,
				1.7851506471633911,
				1
			],
			"min":[
				-1,
				-3.0486536026000977,
				-1
			],
			"type":"VEC3"
		},
		{
			"bufferView":1,
			"componentType":5126,
			"count":75,
			"type":"VEC3"
		},
		{
			"bufferView":2,
			"componentType":5126,
			"count":75,
			"type":"VEC2"
		},
		{
			"bufferView":3,
			"componentType":5123,
			"count":141,
			"type":"SCALAR"
		},
		{
			"bufferView":4,
			"componentType":5126,
			"count":2,
			"max":[
				0.7536203265190125,
				-0.7486836910247803,
				1
			],
			"min":[
				0.7536203265190125,
				-0.7536203265190125,
				1
			],
			"type":"VEC3"
		},
		{
			"bufferView":5,
			"componentType":5123,
			"count":2,
			"type":"SCALAR"
		},
		{
			"bufferView":6,
			"componentType":5126,
			"count":120,
			"max":[
				5
			],
			"min":[
				0.041666666666666664
			],
			"type":"SCALAR"
		},
		{
			"bufferView":7,
			"componentType":5126,
			"count":120,
			"type":"VEC4"
		}
	],
	"bufferViews":[
		{
			"buffer":0,
			"byteLength":900,
			"byteOffset":0,
			"target":34962
		},
		{
			"buffer":0,
			"byteLength":900,
			"byteOffset":900,
			"target":34962
		},
		{
			"buffer":0,
			"byteLength":600,
			"byteOffset":1800,
			"target":34962
		},
		{
			"buffer":0,
			"byteLength":282,
			"byteOffset":2400,
			"target":34963
		},
		{
			"buffer":0,
			"byteLength":24,
			"byteOffset":2684,
			"target":34962
		},
		{
			"buffer":0,
			"byteLength":4,
			"byteOffset":2708,
			"target":34963
		},
		{
			"buffer":0,
			"byteLength":480,
			"byteOffset":2712
		},
		{
			"buffer":0,
			"byteLength":1920,
			"byteOffset":3192
		}
	],
	"buffers":[
		{
			"byteLength":5112,
			"uri":"data:application/octet-stream;base64,"
		}
	]
}
